<svg xmlns="http://www.w3.org/2000/svg" viewBox="0 0 688 177" width="688" height="177" preserveAspectRatio="xMidYMid meet" role="img" aria-label="Finza logo">
  <title>Finza</title>
  <path d="M 10.0 129.0 L 10.0 166.0 L 139.0 166.0 L 139.0 129.0 Z M 162.0 70.0 L 162.0 107.0 L 209.0 107.0 L 209.0 69.0 L 163.0 69.0 Z M 10.0 69.0 L 10.0 107.0 L 139.0 107.0 L 140.0 69.0 Z M 505.0 60.0 L 505.0 78.0 L 548.0 78.0 L 549.0 80.0 L 503.0 138.0 L 503.0 154.0 L 579.0 154.0 L 579.0 136.0 L 534.0 136.0 L 533.0 135.0 L 579.0 76.0 L 579.0 61.0 L 578.0 60.0 Z M 358.0 59.0 L 358.0 154.0 L 359.0 155.0 L 379.0 155.0 L 379.0 60.0 L 378.0 59.0 Z M 602.0 68.0 L 596.0 76.0 L 594.0 82.0 L 601.0 84.0 L 615.0 85.0 L 616.0 82.0 L 621.0 77.0 L 628.0 74.0 L 641.0 74.0 L 648.0 77.0 L 653.0 82.0 L 655.0 86.0 L 655.0 96.0 L 654.0 97.0 L 622.0 97.0 L 621.0 98.0 L 615.0 98.0 L 606.0 101.0 L 598.0 106.0 L 592.0 114.0 L 590.0 120.0 L 590.0 133.0 L 595.0 144.0 L 604.0 152.0 L 617.0 157.0 L 631.0 157.0 L 632.0 156.0 L 641.0 155.0 L 650.0 150.0 L 654.0 146.0 L 656.0 147.0 L 657.0 155.0 L 677.0 155.0 L 677.0 85.0 L 675.0 78.0 L 671.0 71.0 L 661.0 62.0 L 655.0 59.0 L 651.0 59.0 L 645.0 57.0 L 626.0 57.0 L 625.0 58.0 L 617.0 59.0 L 614.0 61.0 L 612.0 61.0 Z M 612.0 123.0 L 613.0 120.0 L 618.0 115.0 L 622.0 113.0 L 626.0 113.0 L 627.0 112.0 L 654.0 112.0 L 655.0 113.0 L 655.0 123.0 L 652.0 130.0 L 644.0 137.0 L 636.0 140.0 L 624.0 140.0 L 619.0 138.0 L 612.0 130.0 Z M 472.0 61.0 L 465.0 58.0 L 461.0 58.0 L 460.0 57.0 L 445.0 57.0 L 432.0 62.0 L 423.0 70.0 L 422.0 69.0 L 422.0 60.0 L 420.0 59.0 L 401.0 59.0 L 401.0 153.0 L 400.0 154.0 L 401.0 155.0 L 423.0 155.0 L 423.0 94.0 L 426.0 86.0 L 432.0 80.0 L 441.0 76.0 L 448.0 76.0 L 455.0 78.0 L 458.0 80.0 L 462.0 85.0 L 465.0 92.0 L 465.0 154.0 L 466.0 155.0 L 487.0 155.0 L 487.0 86.0 L 486.0 85.0 L 485.0 77.0 L 480.0 68.0 Z M 338.0 21.0 L 264.0 21.0 L 264.0 155.0 L 284.0 155.0 L 284.0 100.0 L 285.0 99.0 L 333.0 99.0 L 333.0 78.0 L 286.0 78.0 L 284.0 76.0 L 284.0 44.0 L 286.0 42.0 L 338.0 42.0 Z M 365.0 14.0 L 356.0 19.0 L 354.0 23.0 L 353.0 30.0 L 356.0 38.0 L 359.0 41.0 L 363.0 43.0 L 372.0 43.0 L 375.0 42.0 L 380.0 37.0 L 382.0 33.0 L 382.0 24.0 L 381.0 21.0 L 376.0 16.0 L 371.0 14.0 Z M 162.0 10.0 L 162.0 46.0 L 209.0 46.0 L 209.0 12.0 L 208.0 10.0 Z M 10.0 10.0 L 10.0 46.0 L 139.0 46.0 L 139.0 10.0 Z" fill="#112033" fill-rule="evenodd"/>
  <path d="M 162.0 130.0 L 162.0 166.0 L 209.0 166.0 L 209.0 129.0 L 163.0 129.0 Z" fill="#0BA86F" fill-rule="evenodd"/>
</svg>
